<?xml version="1.0" encoding="utf-8"?>
<!-- Generator: Adobe Illustrator 22.1.0, SVG Export Plug-In . SVG Version: 6.00 Build 0)  -->
<svg version="1.1" id="Lager_1" xmlns="http://www.w3.org/2000/svg" xmlns:xlink="http://www.w3.org/1999/xlink" x="0px" y="0px"
	 viewBox="0 0 1190.5 841.9" enable-background="new 0 0 1190.5 841.9" xml:space="preserve">
<g>
	<path fill="#8A949B" d="M461.1,479.7h-12.7v-59.1h12.7V479.7z"/>
	<path fill="#8A949B" d="M514.6,440.1c0-5.6-3.2-7.5-8.4-7.5h-12.6c-4.7,0-7.7,1.9-7.7,7.5v39.6h-12.7v-44.3
		c0-10.4,7.3-14.8,17-14.8h20.2c9.7,0,17,4.6,17,15v44.1h-12.7V440.1z"/>
	<path fill="#8A949B" d="M570.5,474.5c-1.7,4.4-4.6,6.3-9,6.3c-4.5,0-7.4-2-9.3-6.4l-21.8-53.8h13.5l17.5,41.5l17.4-41.5h13.5
		L570.5,474.5z"/>
	<path fill="#8A949B" d="M649.1,479.7h-36c-9.7,0-16.9-5.2-16.9-15.7v-28.5c0-10.4,7.3-14.9,17-14.9h20.5c9.7,0,16.6,4.8,16.6,15.2
		v10.7l-41.3,15.1c0,5.4,3.1,6.3,9.5,6.3h30.6V479.7z M608.9,449.6l28.7-10.7V438c0-4.4-1.6-5.5-9.2-5.5h-10.7c-7,0-8.9,3.1-8.9,8.2
		V449.6z"/>
	<path fill="#8A949B" d="M659.4,479.7v-11.8H687c4.6,0,7.5-1.5,7.5-6.6c0-4.3-3.5-5.7-7.5-5.7h-11.1c-10.5,0-17-5.8-17-16.5v-3.6
		c0-10.4,7.3-14.9,17-14.9h30.5v11.9H679c-4.2,0-7.4,1.3-7.4,5.7c0,4.2,3.4,5.5,7.4,5.5h11.1c9.7,0,17.1,4.5,17.1,14.9v5.7
		c0,10.4-7.4,15.4-17.1,15.4H659.4z"/>
	<path fill="#8A949B" d="M729.1,400.2v20.4h14.3v11.8h-14.3v47.3h-12.7v-79.4H729.1z"/>
</g>
<g>
	<path fill="#8A949B" d="M506.4,324.4v56.5c0,5.4-2.6,8.1-7.9,8.1c-2.8,0-6.2-0.7-11.5-7.7l-25.6-33.4v40h-13.6v-57.1
		c0-4.7,3-7.3,7.2-7.3c2.7,0,5.5,1,8.2,4.6l29.6,39.2v-42.9H506.4z"/>
</g>
<g>
	<path fill="#8A949B" d="M516.5,387.8v-12.5h29.2c4.9,0,8-1.6,8-7c0-4.5-3.7-6-8-6H534c-11.1,0-18-6.2-18-17.5V341
		c0-11,7.8-15.7,18-15.7h32.3v12.6h-28.9c-4.4,0-7.9,1.4-7.9,6c0,4.4,3.6,5.8,7.9,5.8h11.8c10.2,0,18.1,4.7,18.1,15.7v6
		c0,11-7.9,16.3-18.1,16.3H516.5z"/>
	<path fill="#8A949B" d="M591.8,387.8h-13.5v-62.6h13.5V387.8z"/>
</g>
<polygon fill="#89C765" points="743.4,324.9 743.4,342.4 690.3,396 649.4,358.7 598.8,410.3 447.8,410.3 447.8,398 593.7,398 
	648.8,341.4 689.8,378.9 "/>
<g>
	<path fill="#8A949B" d="M464,495.3v19.5c0,1.9-0.7,2.8-2.2,2.8c-0.8,0-1.7-0.3-3.3-2.7l-7.2-11.5v13.8h-3.8v-19.7
		c0-1.6,0.8-2.5,2-2.5c0.8,0,1.5,0.3,2.3,1.6l8.4,13.5v-14.8H464z"/>
	<path fill="#8A949B" d="M485.6,513c0,2.8-1.9,4.2-4.6,4.2h-7.3c-2.7,0-4.6-1.5-4.6-4.3v-13.2c0-2.8,1.9-4.3,4.6-4.3h7.3
		c2.7,0,4.6,1.5,4.6,4.3V513z M472.9,511.3c0,1.5,0.7,2.2,2.2,2.2h4.7c1.3,0,2-0.6,2-2.2v-10.2c0-1.5-0.7-2.1-2-2.1h-4.7
		c-1.5,0-2.2,0.6-2.2,2.1V511.3z"/>
	<path fill="#8A949B" d="M495,508.6c-0.3-0.3-0.5-0.6-0.6-0.8v9.3h-3.8v-21.9h11.9c2.7,0,4.6,1.5,4.6,4.3v4.5c0,3.2-1.1,4.8-5.3,4.8
		H500l7.8,8.2H503L495,508.6z M494.5,506c0.3-0.5,1.1-0.8,1.9-0.8h5c1.3,0,2-0.6,2-2.1v-2c0-1.5-0.7-2.1-2-2.1h-6.8V506z"/>
	<path fill="#8A949B" d="M519.3,498.9v18.2h-3.8v-18.2h-5.6v-3.7h14.9v3.7H519.3z"/>
	<path fill="#8A949B" d="M544.6,517.1h-3.8v-9H532v9h-3.8v-21.9h3.8v9.3h8.7v-9.3h3.8V517.1z"/>
	<path fill="#8A949B" d="M570.3,504.2c2.7,0,4.6,1.5,4.6,4.3v4.5c0,2.8-1.9,4.2-4.6,4.2h-10.4v-3.7h9.2c1.3,0,2-0.6,2-2.2V510
		c0-1.5-0.7-2.2-2-2.2h-4.8c-2.7,0-4.6-1.5-4.6-4.3v-4.1c0-2.8,1.9-4.2,4.6-4.2h10.4v3.7h-9.2c-1.3,0-2,0.6-2,2.2v0.9
		c0,1.5,0.7,2.2,2,2.2H570.3z"/>
	<path fill="#8A949B" d="M583.5,517.1h-3.8v-21.9h3.8V517.1z"/>
	<path fill="#8A949B" d="M588.8,495.3h12.1c2.7,0,4.6,1.5,4.6,4.3V513c0,2.8-1.9,4.2-4.6,4.2h-12.1V495.3z M592.7,498.9v14.5h7
		c1.3,0,2-0.6,2-2.2v-10.2c0-1.5-0.7-2.1-2-2.1H592.7z"/>
	<path fill="#8A949B" d="M614.1,508v3.3c0,1.5,0.7,2.2,2,2.2h8.8v3.7h-10.1c-2.7,0-4.6-1.3-4.6-4.2v-13.4c0-2.8,1.9-4.3,4.6-4.3
		h10.1v3.7h-8.8c-1.3,0-2,0.6-2,2.1v3.3h10.6v3.7H614.1z"/>
	<path fill="#8A949B" d="M643.7,517.1h-3.8v-21.9h3.8V517.1z"/>
	<path fill="#8A949B" d="M665.6,495.3v19.5c0,1.9-0.7,2.8-2.2,2.8c-0.8,0-1.7-0.3-3.3-2.7l-7.2-11.5v13.8H649v-19.7
		c0-1.6,0.8-2.5,2-2.5c0.8,0,1.5,0.3,2.3,1.6l8.4,13.5v-14.8H665.6z"/>
	<path fill="#8A949B" d="M681.4,515.6c-0.5,1.4-1.3,2-2.7,2c-1.5,0-2.4-0.6-2.9-2l-6.9-20.3h4l5.7,16.8l5.7-16.8h4L681.4,515.6z"/>
	<path fill="#8A949B" d="M695,508v3.3c0,1.5,0.7,2.2,2,2.2h8.8v3.7h-10.1c-2.7,0-4.6-1.3-4.6-4.2v-13.4c0-2.8,1.9-4.3,4.6-4.3h10.1
		v3.7H697c-1.3,0-2,0.6-2,2.1v3.3h10.6v3.7H695z"/>
	<path fill="#8A949B" d="M720.5,504.2c2.7,0,4.6,1.5,4.6,4.3v4.5c0,2.8-1.9,4.2-4.6,4.2h-10.4v-3.7h9.2c1.3,0,2-0.6,2-2.2V510
		c0-1.5-0.7-2.2-2-2.2h-4.8c-2.7,0-4.6-1.5-4.6-4.3v-4.1c0-2.8,1.9-4.2,4.6-4.2h10.4v3.7h-9.2c-1.3,0-2,0.6-2,2.2v0.9
		c0,1.5,0.7,2.2,2,2.2H720.5z"/>
	<path fill="#8A949B" d="M737.3,498.9v18.2h-3.8v-18.2h-5.6v-3.7h14.9v3.7H737.3z"/>
</g>
</svg>
