<?xml version="1.0" encoding="utf-8"?>
<!-- Generator: Adobe Illustrator 22.1.0, SVG Export Plug-In . SVG Version: 6.00 Build 0)  -->
<svg version="1.1" id="Lager_1" xmlns="http://www.w3.org/2000/svg" xmlns:xlink="http://www.w3.org/1999/xlink" x="0px" y="0px"
	 viewBox="0 0 315 210.5" style="enable-background:new 0 0 315 210.5;" xml:space="preserve">
<style type="text/css">
	.st0{fill:#8A949B;}
	.st1{fill:#89C765;}
</style>
<g>
	<path class="st0" d="M23.1,166.3H10.4v-59.1h12.7V166.3z"/>
	<path class="st0" d="M76.6,126.7c0-5.6-3.2-7.5-8.4-7.5H55.6c-4.7,0-7.7,1.9-7.7,7.5v39.6H35.2V122c0-10.4,7.3-14.8,17-14.8h20.2
		c9.7,0,17,4.6,17,15v44.1H76.7L76.6,126.7L76.6,126.7z"/>
	<path class="st0" d="M132.5,161.1c-1.7,4.4-4.6,6.3-9,6.3c-4.5,0-7.4-2-9.3-6.4l-21.8-53.8h13.5l17.5,41.5l17.4-41.5h13.5
		L132.5,161.1z"/>
	<path class="st0" d="M211.1,166.3h-36c-9.7,0-16.9-5.2-16.9-15.7v-28.5c0-10.4,7.3-14.9,17-14.9h20.5c9.7,0,16.6,4.8,16.6,15.2
		v10.7L171,148.2c0,5.4,3.1,6.3,9.5,6.3h30.6L211.1,166.3L211.1,166.3z M170.9,136.2l28.7-10.7v-0.9c0-4.4-1.6-5.5-9.2-5.5h-10.7
		c-7,0-8.9,3.1-8.9,8.2v8.9H170.9z"/>
	<path class="st0" d="M221.4,166.3v-11.8H249c4.6,0,7.5-1.5,7.5-6.6c0-4.3-3.5-5.7-7.5-5.7h-11.1c-10.5,0-17-5.8-17-16.5v-3.6
		c0-10.4,7.3-14.9,17-14.9h30.5v11.9H241c-4.2,0-7.4,1.3-7.4,5.7c0,4.2,3.4,5.5,7.4,5.5h11.1c9.7,0,17.1,4.5,17.1,14.9v5.7
		c0,10.4-7.4,15.4-17.1,15.4H221.4z"/>
	<path class="st0" d="M291.1,86.8v20.4h14.3V119h-14.3v47.3h-12.7V86.9L291.1,86.8L291.1,86.8z"/>
</g>
<g>
	<path class="st0" d="M68.4,11v56.5c0,5.4-2.6,8.1-7.9,8.1c-2.8,0-6.2-0.7-11.5-7.7L23.4,34.5v40H9.8V17.4c0-4.7,3-7.3,7.2-7.3
		c2.7,0,5.5,1,8.2,4.6l29.6,39.2V11L68.4,11L68.4,11z"/>
</g>
<g>
	<path class="st0" d="M78.5,74.4V61.9h29.2c4.9,0,8-1.6,8-7c0-4.5-3.7-6-8-6H96c-11.1,0-18-6.2-18-17.5v-3.8c0-11,7.8-15.7,18-15.7
		h32.3v12.6H99.4c-4.4,0-7.9,1.4-7.9,6c0,4.4,3.6,5.8,7.9,5.8h11.8c10.2,0,18.1,4.7,18.1,15.7v6c0,11-7.9,16.3-18.1,16.3H78.5V74.4z
		"/>
	<path class="st0" d="M153.8,74.4h-13.5V11.8h13.5V74.4z"/>
</g>
<polygon class="st1" points="305.4,11.5 305.4,29 252.3,82.6 211.4,45.3 160.8,96.9 9.8,96.9 9.8,84.6 155.7,84.6 210.8,28 
	251.8,65.5 "/>
<g>
	<path class="st0" d="M26,181.9v19.5c0,1.9-0.7,2.8-2.2,2.8c-0.8,0-1.7-0.3-3.3-2.7L13.3,190v13.8H9.5v-19.7c0-1.6,0.8-2.5,2-2.5
		c0.8,0,1.5,0.3,2.3,1.6l8.4,13.5v-14.8L26,181.9L26,181.9z"/>
	<path class="st0" d="M47.6,199.6c0,2.8-1.9,4.2-4.6,4.2h-7.3c-2.7,0-4.6-1.5-4.6-4.3v-13.2c0-2.8,1.9-4.3,4.6-4.3H43
		c2.7,0,4.6,1.5,4.6,4.3V199.6z M34.9,197.9c0,1.5,0.7,2.2,2.2,2.2h4.7c1.3,0,2-0.6,2-2.2v-10.2c0-1.5-0.7-2.1-2-2.1h-4.7
		c-1.5,0-2.2,0.6-2.2,2.1V197.9z"/>
	<path class="st0" d="M57,195.2c-0.3-0.3-0.5-0.6-0.6-0.8v9.3h-3.8v-21.9h11.9c2.7,0,4.6,1.5,4.6,4.3v4.5c0,3.2-1.1,4.8-5.3,4.8H62
		l7.8,8.2H65L57,195.2z M56.5,192.6c0.3-0.5,1.1-0.8,1.9-0.8h5c1.3,0,2-0.6,2-2.1v-2c0-1.5-0.7-2.1-2-2.1h-6.8v7H56.5z"/>
	<path class="st0" d="M81.3,185.5v18.2h-3.8v-18.2h-5.6v-3.7h14.9v3.7L81.3,185.5L81.3,185.5z"/>
	<path class="st0" d="M106.6,203.7h-3.8v-9H94v9h-3.8v-21.9H94v9.3h8.7v-9.3h3.8L106.6,203.7L106.6,203.7z"/>
	<path class="st0" d="M132.3,190.8c2.7,0,4.6,1.5,4.6,4.3v4.5c0,2.8-1.9,4.2-4.6,4.2h-10.4v-3.7h9.2c1.3,0,2-0.6,2-2.2v-1.3
		c0-1.5-0.7-2.2-2-2.2h-4.8c-2.7,0-4.6-1.5-4.6-4.3V186c0-2.8,1.9-4.2,4.6-4.2h10.4v3.7h-9.2c-1.3,0-2,0.6-2,2.2v0.9
		c0,1.5,0.7,2.2,2,2.2H132.3z"/>
	<path class="st0" d="M145.5,203.7h-3.8v-21.9h3.8V203.7z"/>
	<path class="st0" d="M150.8,181.9h12.1c2.7,0,4.6,1.5,4.6,4.3v13.4c0,2.8-1.9,4.2-4.6,4.2h-12.1V181.9z M154.7,185.5V200h7
		c1.3,0,2-0.6,2-2.2v-10.2c0-1.5-0.7-2.1-2-2.1H154.7z"/>
	<path class="st0" d="M176.1,194.6v3.3c0,1.5,0.7,2.2,2,2.2h8.8v3.7h-10.1c-2.7,0-4.6-1.3-4.6-4.2v-13.4c0-2.8,1.9-4.3,4.6-4.3h10.1
		v3.7h-8.8c-1.3,0-2,0.6-2,2.1v3.3h10.6v3.7h-10.6V194.6z"/>
	<path class="st0" d="M205.7,203.7h-3.8v-21.9h3.8V203.7z"/>
	<path class="st0" d="M227.6,181.9v19.5c0,1.9-0.7,2.8-2.2,2.8c-0.8,0-1.7-0.3-3.3-2.7l-7.2-11.5v13.8H211v-19.7
		c0-1.6,0.8-2.5,2-2.5c0.8,0,1.5,0.3,2.3,1.6l8.4,13.5v-14.8L227.6,181.9L227.6,181.9z"/>
	<path class="st0" d="M243.4,202.2c-0.5,1.4-1.3,2-2.7,2c-1.5,0-2.4-0.6-2.9-2l-6.9-20.3h4l5.7,16.8l5.7-16.8h4L243.4,202.2z"/>
	<path class="st0" d="M257,194.6v3.3c0,1.5,0.7,2.2,2,2.2h8.8v3.7h-10.1c-2.7,0-4.6-1.3-4.6-4.2v-13.4c0-2.8,1.9-4.3,4.6-4.3h10.1
		v3.7H259c-1.3,0-2,0.6-2,2.1v3.3h10.6v3.7H257V194.6z"/>
	<path class="st0" d="M282.5,190.8c2.7,0,4.6,1.5,4.6,4.3v4.5c0,2.8-1.9,4.2-4.6,4.2h-10.4v-3.7h9.2c1.3,0,2-0.6,2-2.2v-1.3
		c0-1.5-0.7-2.2-2-2.2h-4.8c-2.7,0-4.6-1.5-4.6-4.3V186c0-2.8,1.9-4.2,4.6-4.2h10.4v3.7h-9.2c-1.3,0-2,0.6-2,2.2v0.9
		c0,1.5,0.7,2.2,2,2.2H282.5z"/>
	<path class="st0" d="M299.3,185.5v18.2h-3.8v-18.2h-5.6v-3.7h14.9v3.7L299.3,185.5L299.3,185.5z"/>
</g>
</svg>
